<?xml version="1.0" encoding="utf-8"?>
<!-- Generator: Adobe Illustrator 24.1.3, SVG Export Plug-In . SVG Version: 6.00 Build 0)  -->
<svg version="1.1" id="Layer_1" xmlns="http://www.w3.org/2000/svg" xmlns:xlink="http://www.w3.org/1999/xlink" x="0px" y="0px"
	 viewBox="0 0 846.7 1058.3" style="enable-background:new 0 0 846.7 1058.3;" xml:space="preserve">
<g>
	<path d="M343.7,793.8h-23.3v23.3c0,26.8-40.7,26.8-40.7,0v-23.3h-23.3c-26.8,0-26.8-40.7,0-40.7h23.3v-23.3
		c0-26.8,40.7-26.8,40.7,0v23.3h23.3C370.5,753.1,370.5,793.8,343.7,793.8z"/>
	<path d="M627.9,233.8H235.8c-11.2,0-20.3,9.1-20.3,20.3v380.6c0,11.2,9.1,20.3,20.3,20.3h392.2c11.2,0,20.3-9.1,20.3-20.3V254.1
		C648.3,242.9,639.2,233.8,627.9,233.8z M607.6,614.4H256.1V274.5h351.5V614.4z"/>
	<path d="M644.4,132.6H219.3c-46.8,0-85,38.2-85,85v659.8c0,46.8,38.2,85,85,85H573c86.1,0,156.4-70.3,156.4-156.4V217.6
		C729.4,170.8,691.2,132.6,644.4,132.6z M688.7,798.4L660,748.7c-13.3-23.1-48.4-2.9-35.1,20.2l51.4,89c-5.3,10.4-12,19.9-20,28.2
		l-58.5-101.4c-13.4-23.1-48.5-2.8-35.1,20.3l60.7,105.1c-9.6,4.7-19.8,8-30.6,9.9l-57.3-99.3c-13.4-23.1-48.5-2.8-35.1,20.3
		l46.6,80.7h-36.3L473,856.7c-13.3-23.1-48.4-2.9-35.1,20.2l25.8,44.7h-36.3l-16.7-29c-13.3-23.1-48.5-2.8-35.1,20.3l5,8.7H219.3
		c-24.3,0-44.3-20-44.3-44.3V217.6c0-24.3,20-44.3,44.3-44.3h425.1c24.3,0,44.3,20,44.3,44.3V798.4z"/>
</g>
<path d="M555.3,733.5l-14.9,10.8c-21.6,15.8-45.6-17.1-23.9-32.9l14.9-10.8C553,684.9,576.9,717.8,555.3,733.5z"/>
<path d="M484.5,784.7l-14.9,10.7c-21.8,15.6-45.4-17.5-23.7-33.1l14.9-10.7C482.6,736,506.2,769.1,484.5,784.7z"/>
</svg>
