<?xml version="1.0" encoding="utf-8"?>
<!-- Generator: Adobe Illustrator 24.1.3, SVG Export Plug-In . SVG Version: 6.00 Build 0)  -->
<svg version="1.1" id="Layer_1" xmlns="http://www.w3.org/2000/svg" xmlns:xlink="http://www.w3.org/1999/xlink" x="0px" y="0px"
	 viewBox="0 0 218.3 283.5" style="enable-background:new 0 0 218.3 283.5;" xml:space="preserve">
<style type="text/css">
	.st0{fill:none;stroke:#000000;stroke-miterlimit:10;}
</style>
<g>
	<g>
		<path class="st0" d="M80.5,221.8h-7.6v7.6c0,8.7-13.2,8.7-13.2,0v-7.6h-7.6c-8.7,0-8.7-13.2,0-13.2h7.6V201c0-8.7,13.2-8.7,13.2,0
			v7.6h7.6C89.2,208.6,89.2,221.8,80.5,221.8z"/>
		<path class="st0" d="M172.9,39.8H45.4c-3.6,0-6.6,3-6.6,6.6v123.7c0,3.6,3,6.6,6.6,6.6h127.5c3.6,0,6.6-3,6.6-6.6V46.4
			C179.5,42.7,176.5,39.8,172.9,39.8z M166.3,163.5H52V53h114.3V163.5z"/>
		<path class="st0" d="M178.2,6.9H40c-15.2,0-27.6,12.4-27.6,27.6V249c0,15.2,12.4,27.6,27.6,27.6h115c28,0,50.8-22.9,50.8-50.8
			V34.5C205.9,19.3,193.4,6.9,178.2,6.9z M192.6,223.3l-9.3-16.2c-4.3-7.5-15.7-0.9-11.4,6.6l16.7,28.9c-1.7,3.4-3.9,6.5-6.5,9.2
			l-19-33c-4.4-7.5-15.8-0.9-11.4,6.6l19.7,34.2c-3.1,1.5-6.4,2.6-9.9,3.2l-18.6-32.3c-4.4-7.5-15.8-0.9-11.4,6.6l15.1,26.2h-11.8
			l-12.3-21.1c-4.3-7.5-15.7-0.9-11.4,6.6l8.4,14.5h-11.8l-5.4-9.4c-4.3-7.5-15.8-0.9-11.4,6.6l1.6,2.8H40
			c-7.9,0-14.4-6.5-14.4-14.4V34.5c0-7.9,6.5-14.4,14.4-14.4h138.2c7.9,0,14.4,6.5,14.4,14.4V223.3z"/>
	</g>
	<path class="st0" d="M149.3,202.2l-4.8,3.5c-7,5.1-14.8-5.6-7.8-10.7l4.8-3.5C148.5,186.4,156.3,197.1,149.3,202.2z"/>
	<path class="st0" d="M126.3,218.8l-4.8,3.5c-7.1,5.1-14.8-5.7-7.7-10.8l4.8-3.5C125.6,203,133.3,213.8,126.3,218.8z"/>
</g>
</svg>
